<mxfile host="app.diagrams.net" modified="2023-09-12T18:32:31.071Z" agent="Mozilla/5.0 (X11; Ubuntu; Linux x86_64; rv:109.0) Gecko/20100101 Firefox/116.0" etag="9hPjU-c9exvYxNSFEC04" version="21.7.4" type="github">
  <diagram name="Page-1" id="e_NPKVPXcGl3y3P_KjTm">
    <mxGraphModel dx="333" dy="262" grid="1" gridSize="10" guides="1" tooltips="1" connect="1" arrows="1" fold="1" page="1" pageScale="1" pageWidth="827" pageHeight="1169" math="0" shadow="0">
      <root>
        <mxCell id="0" />
        <mxCell id="1" parent="0" />
        <mxCell id="3zx-RbY-fOqLNI04klTz-10" value="" style="edgeStyle=orthogonalEdgeStyle;rounded=0;orthogonalLoop=1;jettySize=auto;html=1;endArrow=open;endFill=0;" edge="1" parent="1" source="3zx-RbY-fOqLNI04klTz-17" target="3zx-RbY-fOqLNI04klTz-9">
          <mxGeometry relative="1" as="geometry" />
        </mxCell>
        <mxCell id="3zx-RbY-fOqLNI04klTz-6" value="get_visits_with_claims" style="rounded=0;whiteSpace=wrap;html=1;" vertex="1" parent="1">
          <mxGeometry x="355" y="440" width="170" height="60" as="geometry" />
        </mxCell>
        <mxCell id="3zx-RbY-fOqLNI04klTz-8" value="" style="edgeStyle=orthogonalEdgeStyle;rounded=0;orthogonalLoop=1;jettySize=auto;html=1;" edge="1" parent="1" source="3zx-RbY-fOqLNI04klTz-7" target="3zx-RbY-fOqLNI04klTz-6">
          <mxGeometry relative="1" as="geometry" />
        </mxCell>
        <mxCell id="3zx-RbY-fOqLNI04klTz-7" value="" style="ellipse;whiteSpace=wrap;html=1;aspect=fixed;" vertex="1" parent="1">
          <mxGeometry x="425" y="340" width="30" height="30" as="geometry" />
        </mxCell>
        <mxCell id="3zx-RbY-fOqLNI04klTz-12" value="" style="edgeStyle=orthogonalEdgeStyle;rounded=0;orthogonalLoop=1;jettySize=auto;html=1;" edge="1" parent="1" source="3zx-RbY-fOqLNI04klTz-9" target="3zx-RbY-fOqLNI04klTz-11">
          <mxGeometry relative="1" as="geometry" />
        </mxCell>
        <mxCell id="3zx-RbY-fOqLNI04klTz-9" value="run_evv_export" style="whiteSpace=wrap;html=1;rounded=0;" vertex="1" parent="1">
          <mxGeometry x="355" y="610" width="170" height="60" as="geometry" />
        </mxCell>
        <mxCell id="3zx-RbY-fOqLNI04klTz-11" value="" style="ellipse;whiteSpace=wrap;html=1;rounded=0;" vertex="1" parent="1">
          <mxGeometry x="430" y="730" width="20" height="20" as="geometry" />
        </mxCell>
        <mxCell id="3zx-RbY-fOqLNI04klTz-4" value="for each period" style="rounded=0;whiteSpace=wrap;html=1;" vertex="1" parent="1">
          <mxGeometry x="220" y="340" width="120" height="60" as="geometry" />
        </mxCell>
        <mxCell id="3zx-RbY-fOqLNI04klTz-18" value="" style="edgeStyle=orthogonalEdgeStyle;rounded=0;orthogonalLoop=1;jettySize=auto;html=1;endArrow=open;endFill=0;" edge="1" parent="1" source="3zx-RbY-fOqLNI04klTz-6" target="3zx-RbY-fOqLNI04klTz-17">
          <mxGeometry relative="1" as="geometry">
            <mxPoint x="440" y="500" as="sourcePoint" />
            <mxPoint x="440" y="610" as="targetPoint" />
          </mxGeometry>
        </mxCell>
        <mxCell id="3zx-RbY-fOqLNI04klTz-17" value="" style="ellipse;whiteSpace=wrap;html=1;aspect=fixed;fillColor=#080808;" vertex="1" parent="1">
          <mxGeometry x="435" y="550" width="10" height="10" as="geometry" />
        </mxCell>
        <mxCell id="3zx-RbY-fOqLNI04klTz-22" value="" style="shape=image;html=1;verticalAlign=top;verticalLabelPosition=bottom;labelBackgroundColor=#ffffff;imageAspect=0;aspect=fixed;image=https://cdn1.iconfinder.com/data/icons/science-technology-outline-24-px/24/Electrical_plug_plug_plug_connector_plug_in_power_plug-128.png" vertex="1" parent="1">
          <mxGeometry x="560" y="538" width="34" height="34" as="geometry" />
        </mxCell>
        <mxCell id="3zx-RbY-fOqLNI04klTz-23" value="" style="endArrow=none;dashed=1;html=1;dashPattern=1 3;strokeWidth=2;rounded=0;" edge="1" parent="1">
          <mxGeometry width="50" height="50" relative="1" as="geometry">
            <mxPoint x="490" y="560" as="sourcePoint" />
            <mxPoint x="540" y="510" as="targetPoint" />
          </mxGeometry>
        </mxCell>
      </root>
    </mxGraphModel>
  </diagram>
</mxfile>
